<svg width="24" height="22" viewBox="0 0 24 22" fill="none" xmlns="http://www.w3.org/2000/svg">
<g id="Book Today">
<path d="M22.3099 9.94627C25.5278 17.0367 23.025 22 11.4049 22C1.57262 20.7592 0.5 17.1589 0.5 11.1871C0.5 5.63859 0.499999 -1.75293 11.4049 0.374196C22.3099 2.50132 19.6284 5.33749 22.3099 9.94627Z" fill="#62868C"/>
<path d="M9.091 10.3345C9.883 11.891 11.159 13.1615 12.7155 13.959L13.9255 12.749C14.074 12.6005 14.294 12.551 14.4865 12.617C15.1025 12.8205 15.768 12.9305 16.45 12.9305C16.7525 12.9305 17 13.178 17 13.4805V15.4C17 15.7025 16.7525 15.95 16.45 15.95C11.2855 15.95 7.1 11.7645 7.1 6.6C7.1 6.2975 7.3475 6.05 7.65 6.05H9.575C9.8775 6.05 10.125 6.2975 10.125 6.6C10.125 7.2875 10.235 7.9475 10.4385 8.5635C10.499 8.756 10.455 8.9705 10.301 9.1245L9.091 10.3345Z" fill="black"/>
</g>
</svg>
