<svg width="639" height="734" viewBox="0 0 639 734" fill="none" xmlns="http://www.w3.org/2000/svg">
<path d="M63.7045 588.5C-6.2955 633.3 -4.7955 704.167 4.7045 734H642.705L644.705 0C599.538 8.83333 495.905 45.8 450.705 117C394.205 206 446.205 242 377.705 287.5C309.205 333 277.705 332.5 255.705 398C233.705 463.5 151.204 532.5 63.7045 588.5Z" fill="#A9D6DD"/>
<path d="M151.311 588.5C68.7668 598.169 82.811 704.167 92.311 734H730.311L732.311 0C687.144 8.83333 622.744 -16 538.311 117C481.811 206 605.106 220 465.311 287.5C391.257 323.257 344.773 393.649 343.311 398C321.311 463.5 219.606 580.5 151.311 588.5Z" fill="#B5E8F0"/>
</svg>
