<svg width="50" height="42" viewBox="0 0 50 42" fill="none" xmlns="http://www.w3.org/2000/svg">
<g id="Frame 25">
<path id="Vector" d="M35.625 0C35.2438 0 34.8781 0.15145 34.6085 0.421034C34.339 0.690618 34.1875 1.05625 34.1875 1.4375V7.1875H28.4375C28.0563 7.1875 27.6906 7.33895 27.421 7.60853C27.1515 7.87812 27 8.24375 27 8.625V14.375C27 14.7562 27.1515 15.1219 27.421 15.3915C27.6906 15.661 28.0563 15.8125 28.4375 15.8125H34.1875V21.5625C34.1875 21.9437 34.339 22.3094 34.6085 22.579C34.8781 22.8485 35.2438 23 35.625 23H41.375C41.7562 23 42.1219 22.8485 42.3915 22.579C42.661 22.3094 42.8125 21.9437 42.8125 21.5625V15.8125H48.5625C48.9437 15.8125 49.3094 15.661 49.579 15.3915C49.8485 15.1219 50 14.7562 50 14.375V8.625C50 8.24375 49.8485 7.87812 49.579 7.60853C49.3094 7.33895 48.9437 7.1875 48.5625 7.1875H42.8125V1.4375C42.8125 1.05625 42.661 0.690618 42.3915 0.421034C42.1219 0.15145 41.7562 0 41.375 0H35.625Z" fill="#60FAD5"/>
<path id="Vector_2" d="M19.75 24C19.4516 24 19.1655 24.1185 18.9545 24.3295C18.7435 24.5405 18.625 24.8266 18.625 25.125V29.625H14.125C13.8266 29.625 13.5405 29.7435 13.3295 29.9545C13.1185 30.1655 13 30.4516 13 30.75V35.25C13 35.5484 13.1185 35.8345 13.3295 36.0455C13.5405 36.2565 13.8266 36.375 14.125 36.375H18.625V40.875C18.625 41.1734 18.7435 41.4595 18.9545 41.6705C19.1655 41.8815 19.4516 42 19.75 42H24.25C24.5484 42 24.8345 41.8815 25.0455 41.6705C25.2565 41.4595 25.375 41.1734 25.375 40.875V36.375H29.875C30.1734 36.375 30.4595 36.2565 30.6705 36.0455C30.8815 35.8345 31 35.5484 31 35.25V30.75C31 30.4516 30.8815 30.1655 30.6705 29.9545C30.4595 29.7435 30.1734 29.625 29.875 29.625H25.375V25.125C25.375 24.8266 25.2565 24.5405 25.0455 24.3295C24.8345 24.1185 24.5484 24 24.25 24H19.75Z" fill="#60FAD5"/>
<path id="Vector_3" d="M3.375 6C3.22582 6 3.08274 6.05926 2.97725 6.16475C2.87176 6.27024 2.8125 6.41332 2.8125 6.5625V8.8125H0.5625C0.413316 8.8125 0.270242 8.87176 0.164752 8.97725C0.0592632 9.08274 0 9.22582 0 9.375V11.625C0 11.7742 0.0592632 11.9173 0.164752 12.0227C0.270242 12.1282 0.413316 12.1875 0.5625 12.1875H2.8125V14.4375C2.8125 14.5867 2.87176 14.7298 2.97725 14.8352C3.08274 14.9407 3.22582 15 3.375 15H5.625C5.77418 15 5.91726 14.9407 6.02275 14.8352C6.12824 14.7298 6.1875 14.5867 6.1875 14.4375V12.1875H8.4375C8.58668 12.1875 8.72976 12.1282 8.83525 12.0227C8.94074 11.9173 9 11.7742 9 11.625V9.375C9 9.22582 8.94074 9.08274 8.83525 8.97725C8.72976 8.87176 8.58668 8.8125 8.4375 8.8125H6.1875V6.5625C6.1875 6.41332 6.12824 6.27024 6.02275 6.16475C5.91726 6.05926 5.77418 6 5.625 6H3.375Z" fill="#60FAD5"/>
</g>
</svg>
