<svg width="640" height="657" viewBox="0 0 640 657" fill="none" xmlns="http://www.w3.org/2000/svg">
<path d="M575.607 68.5C645.607 23.7 644.107 -47.1667 634.607 -77L-3.39349 -77.0001L-5.39355 657C39.7731 648.167 143.406 611.2 188.606 540C245.106 451 193.106 415 261.606 369.5C330.106 324 361.606 324.5 383.606 259C405.606 193.5 488.107 124.5 575.607 68.5Z" fill="#A9D6DD"/>
<path d="M488 68.5C570.544 58.8309 556.5 -47.1667 547 -77L-90.9999 -77.0001L-93 657C-47.8333 648.167 16.5674 673 101 540C157.5 451 34.2046 437 174 369.5C248.054 333.743 294.538 263.351 296 259C318 193.5 419.705 76.5 488 68.5Z" fill="#B5E8F0"/>
</svg>
