<svg width="159" height="248" viewBox="0 0 159 248" fill="none" xmlns="http://www.w3.org/2000/svg">
<path id="Vector 13" d="M0.84819 236.539C0.317498 237.175 0.40297 238.121 1.0391 238.652L11.4054 247.3C12.0415 247.831 12.9874 247.745 13.5181 247.109C14.0488 246.473 13.9633 245.527 13.3272 244.996L4.11271 237.309L11.7999 228.095C12.3306 227.458 12.2452 226.513 11.609 225.982C10.9729 225.451 10.027 225.537 9.49631 226.173L0.84819 236.539ZM73.5904 3.443C130.098 19.4821 161.463 73.1352 154.152 124.978C146.863 176.666 100.976 227.05 1.86501 236.006L2.13499 238.994C102.224 229.95 149.587 178.834 157.123 125.397C164.637 72.1148 132.402 17.0178 74.4096 0.557003L73.5904 3.443Z" fill="url(#paint0_linear_372_32)"/>
<defs>
<linearGradient id="paint0_linear_372_32" x1="78" y1="2" x2="77.9245" y2="208.5" gradientUnits="userSpaceOnUse">
<stop stop-color="#577F85" stop-opacity="0"/>
<stop offset="1" stop-color="#289BAD"/>
</linearGradient>
</defs>
</svg>
